<svg xmlns="http://www.w3.org/2000/svg" xmlns:xlink="http://www.w3.org/1999/xlink" width="390" zoomAndPan="magnify" viewBox="0 0 292.5 292.5" height="390" preserveAspectRatio="xMidYMid meet" version="1.0"><defs><clipPath id="d8615cbca8"><path d="M 0 0 L 291.253906 0 L 291.253906 291.253906 L 0 291.253906 Z M 0 0 " clip-rule="nonzero"/></clipPath></defs><g clip-path="url(#d8615cbca8)"><path fill="#5b3f93" d="M 145.671875 0 C 65.207031 0 0 65.207031 0 145.671875 C 0 226.140625 65.207031 291.347656 145.671875 291.347656 C 226.140625 291.347656 291.347656 226.140625 291.347656 145.671875 C 291.21875 65.207031 226.011719 0 145.671875 0 Z M 224.121094 89.421875 L 195.742188 222.480469 C 194.355469 229.167969 186.535156 232.066406 181.113281 228.03125 L 113.761719 177.835938 L 188.175781 110.609375 C 188.175781 110.609375 193.222656 106.449219 191.835938 105.1875 C 190.320312 103.671875 184.769531 106.953125 181.996094 108.84375 C 179.09375 110.988281 90.808594 166.734375 90.808594 166.734375 L 46.035156 152.863281 C 40.988281 151.347656 40.988281 144.410156 48.304688 141.382812 L 212.769531 78.070312 C 219.960938 74.539062 225.636719 82.609375 224.121094 89.421875 Z M 224.121094 89.421875 " fill-opacity="1" fill-rule="nonzero"/><path fill="#5b3f93" d="M 145.671875 0 C 65.207031 0 0 65.207031 0 145.671875 C 0 226.140625 65.207031 291.347656 145.671875 291.347656 C 226.140625 291.347656 291.347656 226.140625 291.347656 145.671875 C 291.21875 65.207031 226.011719 0 145.671875 0 Z M 224.121094 89.421875 L 195.742188 222.480469 C 194.355469 229.167969 186.535156 232.066406 181.113281 228.03125 L 113.761719 177.835938 L 188.175781 110.609375 C 188.175781 110.609375 193.222656 106.449219 191.835938 105.1875 C 190.320312 103.671875 184.769531 106.953125 181.996094 108.84375 C 179.09375 110.988281 90.808594 166.734375 90.808594 166.734375 L 46.035156 152.863281 C 40.988281 151.347656 40.988281 144.410156 48.304688 141.382812 L 212.769531 78.070312 C 219.960938 74.539062 225.636719 82.609375 224.121094 89.421875 Z M 224.121094 89.421875 " fill-opacity="1" fill-rule="nonzero"/></g></svg>